<?xml version="1.0" encoding="UTF-8"?><svg id="Layer_1" xmlns="http://www.w3.org/2000/svg" viewBox="0 0 514 462"><defs><style>.cls-1{fill:#ff7bac;}</style></defs><path class="cls-1" d="m337,115c-9.76-31.23,1.81-41.2-10-57-14.72-19.69-44.74-20.32-77-21-8.78-.18-16.7-.35-23.95-.27-26.77-.24-44.65,1.46-61.05,14.27-27.23,21.27-34.8,60.99-32,87,1.24,11.49,4.15,17.04,6,38,1.41,15.94.29,19.13,1,44,1.3,45.43,5.52,51.62,10,55,6.4,4.83,15.02,5.15,18,13,1.68,4.42.4,8.13,0,11-2.15,15.57,18.01,33.06,28,39,9.27,5.52,20.85,7.66,33.03,7.02,29.08,1.54,64.1-14.59,79.97-40.02,17.16-27.49-.96-45.2,19-78,17.3-28.43,38.5-27.61,41-48,2.62-21.4-20.24-26.39-32-64Z"/><path class="cls-1" d="m317.84,278.54c8.05,17.82,12.11,30.64,20.16,48.46,85.16,51.02,169.33,101.66,175.87,143.4L-7.48,466.23c53.67-73.66,34.44-91.75,164.98-151.73l10-18,25,40c9.89,4.54,25.85,9.93,45,8,53.81-5.41,79.14-63.11,80.34-65.96Z"/><g><path d="m247.98,109.33h-23.61c.91-6.41,14.16-7.22,23.61,0Z"/><path d="m372.97,101.11c-3.48-1.27-6.97-2.5-11.24-4.03,1.81-4.52,3.75-7.88,4.48-11.49,1.15-5.67,2.78-11.7,1.94-17.23-2.5-16.56-15.4-25.5-35.42-24.65-5.32.23-8.57-1.07-11.06-5.35-1.74-2.99-3.88-5.82-5.17-9-6.44-15.86-19.24-22.05-35.21-23.17-5.51-.39-11.12.66-16.65.37-10.65-.56-21.31-1.35-31.91-2.57-5.48-.63-10.76-2.94-16.24-3.57-19.29-2.21-31.03,4.9-38.58,22.85-.65,1.54-1.2,3.11-1.79,4.67-23.97-9.14-45.47,8.19-48.31,28.06-3.2,22.35-12.89,44.68-1.71,67.62l-9.65,5.14c2.13,11.08,3.29,22.19,6.5,32.68,4.83,15.79,14.02,21.43,30.47,20.98,3.59-.1,7.18-.01,11.75-.01l-.63,1.19c-3.18,5.98-2.37,13.07,1.44,18.67,2.68,3.94.6,7.19-5.77,14.19-5.24,5.75-10.32,11.65-16.12,18.22-1.29-12.12-2.46-23.1-3.41-32.01-1.13,4.62-3.07,11.25-4.32,18.02-2.09,11.29-4.84,22.62-5.27,34.02-.57,15.32,9.08,29.37,23.55,34.44,4.06,1.42,7.78,3.71,11.64,5.65.07.03.14.06.22.08-.25,2.54-1.18,5.34-.37,7.47,2.93,7.72,5.53,15.88,10.16,22.55,4.8,6.94,11.03,13.58,18.08,18.07,6.36,4.05,14.68,5.02,20.77,6.93-8.29-.78-16.97,2.03-24.51,8.33-5.85,4.89-11.59,9.91-17.48,14.75-4.36,3.58-8.87,6.96-13.92,10.9-7.7-23.89-6.06-46.52-.93-70.65-18.35,19.39-20.92,66.75-1.61,90.35,9.94-7.68,19.94-15.4,31.01-23.94l.31,94.36c23.41,4.31,13.59-3.31,37,1,4.83-12.67,13.82-82.26,18.86-95.46,7.12,8.72,14.44,17.9,22,26.88,7.83,9.3,11.7,9.75,20.77,1.86,22.05-19.17,35.21-43.51,50.36-69.12,1.47-2.48,3.31-8.77,1.01-13.17-7.14-14.99-9.49-24.04-16.95-39.23-3.29-6.69-2.92-12.21,2.34-17.93,2.62-2.85,5.99-8.93,4.83-10.56-3.02-4.23-1.63-6.72,1.22-8.85,8.77-6.58,13.24-15.9,17.21-25.58,3.05-7.44,6.74-14.11,13.29-19.4,7.24-5.85,11.86-13.98,11.36-23.59-.39-7.58,2.62-13.32,6.64-19.14,4.3-6.22,8.93-12.38,12.19-19.14,7.95-16.47.02-35.22-17.16-41.47Zm-191.2-46.21c7.5-2.7,12.73-1.8,16.77,4.96,7.39,12.34,18.43,19.33,32.18,22.86,18.8,4.83,36.47,1.53,53.62-6.52,6.17-2.89,12.3-5.86,20.99-10.01-8.28,22.79-3.84,43.12.8,64.18-10.44,0-20.03.62-29.5-.14-17.26-1.38-34.42-4.08-51.69-5.22-8.3-.55-17.16-1.76-24.57,5.18-1.73,1.62-8.27.87-10.34-1.13-7.99-7.73-17.93-9.12-27.91-9.55-7.25-.31-8.96-3.87-10.77-9.89-5.23-17.39,14.13-48.86,30.42-54.73Zm27.6,141.7l.93-6.17c5.53,1.22,10.5,2.58,15.55,3.38,19.29,3.03,34.89-6.6,39.79-24.34,4.01-14.54,9.69-18.51,28.76-18.26-3.96,14.72-7.54,28.35-11.36,41.92-.63,2.25-1.93,4.62-3.6,6.22-9.22,8.79-18.35,17.72-28.15,25.84-4.75,3.94-10.23,4.24-16.64.65-11.66-6.53-24.48-11.06-34.54-22.3l3.04-.55c3.22-.58,5.72-3.15,6.21-6.39Zm-3.12-50.92c.01-3.31,2.58-6.04,5.88-6.24,15.16-.9,43.97.97,45.61,10.73,1.84,10.91,1.83,22.02-8.28,29.36-9.2,6.68-19.71,6.13-29.78,1.94-9.46-5.33-13.53-13.79-13.43-35.79Zm-12.79,48.33l-6.18-10.3c-2.45,5.34-3.88,9.53-6.18,13.17-1.02,1.63-2.28,3.1-3.68,4.62-1.97,2.14-5.6.87-5.72-2.04-.44-10.82,4.87-24.5,18.75-50.34-1.95,14.64,10.71,28.05,3,44.89Zm-63.19-131.28c3.52-24.84,26.14-40.27,46.38-29.7-27.5-6.73-36.81,11.68-46.38,29.7Zm13.99,109.23c-1.26-.36-4.19-4.66-4.99-7.58-1.9-6.99-2.02-13.84-.67-19.71,1.02-4.46,5.17-7.48,9.74-7.24,13.71.71,30.91-2.9,30.91,8.86,0,4.17-8.34,33.37-34.99,25.68Zm9.95,70.68c22.51-23.17,50.53-13.44,65.62,2.28-11.34,3.27-20.65-5.31-31.99-2.71-1.96,5.72-3.94,11.5-6,17.49q-2.97-3.59-3.26-20.89c-8.32,1.31-16.39,2.58-24.37,3.84Zm54.62,95.88c-9.58-.51-16.37-6.17-21.33-13.32-6.28-9.05-11.25-19.01-16.79-28.58l.19-.19c14.84.86,29.23,2.7,44.09,2.9,26.15.36,47.93-10.58,68.24-26.35,11.77-9.14,17.46-20.96,21.51-34.37.67-2.2,1.14-4.39,1.52-6.59.27-3.58.43-7.04,1.36-10.03.59-4.78,1.33-9.78,3.01-15.23,0,14.99,2.09,45.21,2.09,58.39,0,14.6-4.14,19.67-16.63,34.47-13.13,15.57-29.39,27.48-47.54,36.54-5.02,2.5-11.22,3.34-16.93,3.57-7.56.3-15.18-.81-22.78-1.21Zm121.17-8.52c7,20-49.04,90.1-60,71-10.8-18.83-36.59-50.82-35-51,18-2,14.68-.63,33-9,32.17-14.7,43-37,46-48,1.34-4.9,8.67,16.04,16,37Zm22.21-163.87c-.46,17.15-.79,17.56-17.3,22.51-4.88,3.67-9.63,7.55-14.75,10.85-1.71,1.1-5.44,1.66-6.44.66-1.6-1.6-2.77-4.98-2.23-7.13,1.92-7.65,4.95-15.02,6.96-22.65,2.2-8.34,10.29-6.27,15.43-9.31,6.81-4.03,11.7-.98,14.61,7.15,3-14.39-.92-15.99-21.93-10.64,4.68-8.18,10.52-11.35,18.19-8.43,2.96,1.13,5.61,4.69,7.03,7.78,1.19,2.6.52,6.12.43,9.22Zm27.03-24.64c-2.85-10.54-5.53-20.44-8.35-30.85,7.07,8.72,14.08,17.55,8.35,30.85Z"/></g></svg>